<svg xmlns="http://www.w3.org/2000/svg" xmlns:xlink="http://www.w3.org/1999/xlink" width="500" zoomAndPan="magnify" viewBox="0 0 375 299.999988" height="400" preserveAspectRatio="xMidYMid meet" version="1.0"><defs><clipPath id="66a6fe6438"><path d="M 37.5 56 L 300 56 L 300 225 L 37.5 225 Z M 37.5 56 " clip-rule="nonzero"/></clipPath><clipPath id="d1898da21c"><path d="M 206 0 L 337.5 0 L 337.5 132 L 206 132 Z M 206 0 " clip-rule="nonzero"/></clipPath></defs><g clip-path="url(#66a6fe6438)"><path fill="#ffffff" d="M 300 225 L 143.867188 225 L 78.242188 75 L 37.5 75 L 37.5 56.25 L 90.507812 56.25 L 156.132812 206.25 L 300 206.25 Z M 300 225 " fill-opacity="1" fill-rule="nonzero"/></g><path fill="#ffffff" d="M 206.25 271.875 C 206.25 287.402344 193.652344 300 178.125 300 C 162.578125 300 150 287.402344 150 271.875 C 150 256.347656 162.578125 243.75 178.125 243.75 C 193.652344 243.75 206.25 256.347656 206.25 271.875 Z M 206.25 271.875 " fill-opacity="1" fill-rule="nonzero"/><path fill="#ffffff" d="M 300 271.875 C 300 287.402344 287.402344 300 271.875 300 C 256.347656 300 243.75 287.402344 243.75 271.875 C 243.75 256.347656 256.347656 243.75 271.875 243.75 C 287.402344 243.75 300 256.347656 300 271.875 Z M 300 271.875 " fill-opacity="1" fill-rule="nonzero"/><g clip-path="url(#d1898da21c)"><path fill="#ffffff" d="M 271.875 0 C 235.636719 0 206.25 29.386719 206.25 65.625 C 206.25 101.863281 235.636719 131.25 271.875 131.25 C 308.113281 131.25 337.5 101.863281 337.5 65.625 C 337.5 29.386719 308.113281 0 271.875 0 Z M 309.375 75 L 281.25 75 L 281.25 103.125 L 262.5 103.125 L 262.5 75 L 234.375 75 L 234.375 56.25 L 262.5 56.25 L 262.5 28.125 L 281.25 28.125 L 281.25 56.25 L 309.375 56.25 Z M 309.375 75 " fill-opacity="1" fill-rule="nonzero"/></g><path fill="#ffffff" d="M 271.875 150 C 235.253906 150 204.328125 126.414062 192.683594 93.75 L 131.25 93.75 L 168.75 187.5 L 300 187.5 L 321.644531 133.410156 C 307.652344 143.699219 290.535156 150 271.875 150 Z M 271.875 150 " fill-opacity="1" fill-rule="nonzero"/></svg>