<svg xmlns="http://www.w3.org/2000/svg" xmlns:xlink="http://www.w3.org/1999/xlink" width="500" zoomAndPan="magnify" viewBox="0 0 375 299.999988" height="400" preserveAspectRatio="xMidYMid meet" version="1.0"><defs><clipPath id="03df576f3f"><path d="M 72 15.9375 L 375 15.9375 L 375 247 L 72 247 Z M 72 15.9375 " clip-rule="nonzero"/></clipPath><clipPath id="cf9cb3cfd9"><path d="M 203 252 L 235 252 L 235 284.4375 L 203 284.4375 Z M 203 252 " clip-rule="nonzero"/></clipPath><clipPath id="dbbfaa5e76"><path d="M 297 252 L 330 252 L 330 284.4375 L 297 284.4375 Z M 297 252 " clip-rule="nonzero"/></clipPath></defs><g clip-path="url(#03df576f3f)"><path fill="#413382" d="M 357.769531 83.402344 L 337.027344 191.867188 L 200.484375 191.867188 L 179.746094 83.402344 Z M 196.445312 207.234375 L 343.371094 207.234375 C 343.617188 207.234375 343.863281 207.222656 344.105469 207.195312 C 344.195312 207.1875 344.277344 207.171875 344.367188 207.160156 C 344.519531 207.140625 344.671875 207.121094 344.820312 207.09375 C 344.921875 207.074219 345.023438 207.046875 345.125 207.023438 C 345.253906 206.992188 345.382812 206.960938 345.511719 206.925781 C 345.617188 206.894531 345.722656 206.859375 345.828125 206.824219 C 345.945312 206.785156 346.0625 206.742188 346.179688 206.695312 C 346.28125 206.65625 346.386719 206.613281 346.488281 206.566406 C 346.601562 206.515625 346.714844 206.460938 346.824219 206.402344 C 346.921875 206.355469 347.019531 206.308594 347.113281 206.253906 C 347.230469 206.1875 347.347656 206.117188 347.460938 206.042969 C 347.539062 205.992188 347.625 205.945312 347.703125 205.890625 C 347.863281 205.78125 348.015625 205.664062 348.164062 205.546875 L 348.257812 205.472656 C 348.4375 205.328125 348.605469 205.167969 348.769531 205.007812 L 348.914062 204.851562 C 349.027344 204.734375 349.136719 204.617188 349.242188 204.492188 C 349.300781 204.425781 349.351562 204.355469 349.40625 204.285156 C 349.492188 204.171875 349.582031 204.054688 349.667969 203.933594 C 349.722656 203.855469 349.773438 203.773438 349.828125 203.691406 C 349.898438 203.582031 349.96875 203.464844 350.035156 203.34375 C 350.089844 203.253906 350.136719 203.160156 350.1875 203.066406 C 350.246094 202.953125 350.296875 202.84375 350.351562 202.726562 C 350.398438 202.621094 350.445312 202.519531 350.488281 202.414062 C 350.53125 202.304688 350.570312 202.191406 350.609375 202.078125 C 350.648438 201.960938 350.691406 201.851562 350.722656 201.734375 C 350.757812 201.621094 350.785156 201.503906 350.8125 201.390625 C 350.839844 201.269531 350.875 201.15625 350.894531 201.035156 L 350.90625 200.996094 L 374.585938 77.164062 C 375.015625 74.917969 374.421875 72.59375 372.964844 70.824219 C 371.507812 69.058594 369.335938 68.039062 367.050781 68.039062 L 176.722656 68.039062 L 172.179688 44.382812 C 169.019531 27.890625 154.554688 15.925781 137.789062 15.925781 L 80.210938 15.925781 C 75.96875 15.925781 72.535156 19.363281 72.535156 23.609375 C 72.535156 27.851562 75.96875 31.292969 80.210938 31.292969 L 137.789062 31.292969 C 147.207031 31.292969 155.335938 38.015625 157.113281 47.28125 L 185.3125 194.257812 C 175.832031 198.53125 169.207031 208.074219 169.207031 219.144531 C 169.207031 234.183594 181.425781 246.417969 196.445312 246.417969 L 343.371094 246.417969 C 347.609375 246.417969 351.042969 242.980469 351.042969 238.734375 C 351.042969 234.492188 347.609375 231.050781 343.371094 231.050781 L 196.445312 231.050781 C 189.886719 231.050781 184.554688 225.710938 184.554688 219.144531 C 184.554688 212.578125 189.886719 207.234375 196.445312 207.234375 " fill-opacity="1" fill-rule="nonzero"/></g><g clip-path="url(#cf9cb3cfd9)"><path fill="#413382" d="M 219.078125 252.949219 C 210.394531 252.949219 203.347656 260 203.347656 268.699219 C 203.347656 277.398438 210.394531 284.449219 219.078125 284.449219 C 227.765625 284.449219 234.804688 277.398438 234.804688 268.699219 C 234.804688 260 227.765625 252.949219 219.078125 252.949219 " fill-opacity="1" fill-rule="nonzero"/></g><g clip-path="url(#dbbfaa5e76)"><path fill="#413382" d="M 313.449219 252.949219 C 304.761719 252.949219 297.71875 260 297.71875 268.699219 C 297.71875 277.398438 304.761719 284.449219 313.449219 284.449219 C 322.132812 284.449219 329.175781 277.398438 329.175781 268.699219 C 329.175781 260 322.132812 252.949219 313.449219 252.949219 " fill-opacity="1" fill-rule="nonzero"/></g><path fill="#413382" d="M 30.722656 82.386719 L 128.160156 82.386719 C 132.398438 82.386719 135.832031 78.945312 135.832031 74.699219 C 135.832031 70.457031 132.398438 67.015625 128.160156 67.015625 L 30.722656 67.015625 C 26.484375 67.015625 23.050781 70.457031 23.050781 74.699219 C 23.050781 78.945312 26.484375 82.386719 30.722656 82.386719 " fill-opacity="1" fill-rule="nonzero"/><path fill="#413382" d="M 19.214844 119.265625 L 131.996094 119.265625 C 136.234375 119.265625 139.667969 115.824219 139.667969 111.582031 C 139.667969 107.335938 136.234375 103.894531 131.996094 103.894531 L 19.214844 103.894531 C 14.976562 103.894531 11.542969 107.335938 11.542969 111.582031 C 11.542969 115.824219 14.976562 119.265625 19.214844 119.265625 " fill-opacity="1" fill-rule="nonzero"/><path fill="#413382" d="M 143.507812 148.460938 C 143.507812 144.214844 140.070312 140.773438 135.832031 140.773438 L 7.707031 140.773438 C 3.464844 140.773438 0.03125 144.214844 0.03125 148.460938 C 0.03125 152.703125 3.464844 156.140625 7.707031 156.140625 L 135.832031 156.140625 C 140.070312 156.140625 143.507812 152.703125 143.507812 148.460938 " fill-opacity="1" fill-rule="nonzero"/><path fill="#413382" d="M 147.34375 185.339844 C 147.34375 181.09375 143.90625 177.65625 139.667969 177.65625 L 46.066406 177.65625 C 41.828125 177.65625 38.394531 181.09375 38.394531 185.339844 C 38.394531 189.582031 41.828125 193.019531 46.066406 193.019531 L 139.667969 193.019531 C 143.90625 193.019531 147.34375 189.582031 147.34375 185.339844 " fill-opacity="1" fill-rule="nonzero"/><path fill="#413382" d="M 143.507812 214.535156 L 80.59375 214.535156 C 76.355469 214.535156 72.917969 217.972656 72.917969 222.21875 C 72.917969 226.460938 76.355469 229.898438 80.59375 229.898438 L 143.507812 229.898438 C 147.742188 229.898438 151.179688 226.460938 151.179688 222.21875 C 151.179688 217.972656 147.742188 214.535156 143.507812 214.535156 " fill-opacity="1" fill-rule="nonzero"/></svg>