<svg xmlns="http://www.w3.org/2000/svg" xmlns:xlink="http://www.w3.org/1999/xlink" width="500" zoomAndPan="magnify" viewBox="0 0 375 374.999991" height="500" preserveAspectRatio="xMidYMid meet" version="1.0"><defs><clipPath id="de3c034b29"><path d="M 15.136719 15.136719 L 360.136719 15.136719 L 360.136719 360.136719 L 15.136719 360.136719 Z M 15.136719 15.136719 " clip-rule="nonzero"/></clipPath></defs><path fill="#ff1616" d="M 153.136719 153.136719 C 162.660156 153.136719 170.386719 160.859375 170.386719 170.386719 L 170.386719 273.886719 C 170.386719 283.410156 162.660156 291.136719 153.136719 291.136719 C 143.609375 291.136719 135.886719 283.410156 135.886719 273.886719 L 135.886719 170.386719 C 135.886719 160.859375 143.609375 153.136719 153.136719 153.136719 Z M 153.136719 153.136719 " fill-opacity="1" fill-rule="nonzero"/><path fill="#ff1616" d="M 239.386719 170.386719 C 239.386719 160.859375 231.660156 153.136719 222.136719 153.136719 C 212.609375 153.136719 204.886719 160.859375 204.886719 170.386719 L 204.886719 273.886719 C 204.886719 283.410156 212.609375 291.136719 222.136719 291.136719 C 231.660156 291.136719 239.386719 283.410156 239.386719 273.886719 Z M 239.386719 170.386719 " fill-opacity="1" fill-rule="nonzero"/><g clip-path="url(#de3c034b29)"><path fill="#ff1616" d="M 101.386719 84.136719 C 101.386719 46.027344 132.277344 15.136719 170.386719 15.136719 L 204.886719 15.136719 C 242.992188 15.136719 273.886719 46.027344 273.886719 84.136719 L 342.886719 84.136719 C 352.410156 84.136719 360.136719 91.859375 360.136719 101.386719 C 360.136719 110.910156 352.410156 118.636719 342.886719 118.636719 L 325.636719 118.636719 L 325.636719 291.136719 C 325.636719 329.242188 294.742188 360.136719 256.636719 360.136719 L 118.636719 360.136719 C 80.527344 360.136719 49.636719 329.242188 49.636719 291.136719 L 49.636719 118.636719 L 32.386719 118.636719 C 22.859375 118.636719 15.136719 110.910156 15.136719 101.386719 C 15.136719 91.859375 22.859375 84.136719 32.386719 84.136719 Z M 170.386719 49.636719 L 204.886719 49.636719 C 223.9375 49.636719 239.386719 65.082031 239.386719 84.136719 L 135.886719 84.136719 C 135.886719 65.082031 151.332031 49.636719 170.386719 49.636719 Z M 84.136719 118.636719 L 84.136719 291.136719 C 84.136719 310.1875 99.582031 325.636719 118.636719 325.636719 L 256.636719 325.636719 C 275.6875 325.636719 291.136719 310.1875 291.136719 291.136719 L 291.136719 118.636719 Z M 84.136719 118.636719 " fill-opacity="1" fill-rule="evenodd"/></g></svg>