<svg xmlns="http://www.w3.org/2000/svg" xmlns:xlink="http://www.w3.org/1999/xlink" width="500" zoomAndPan="magnify" viewBox="0 0 375 149.999998" height="200" preserveAspectRatio="xMidYMid meet" version="1.0"><defs><g/><clipPath id="b7474482d7"><path d="M 111 28 L 123 28 L 123 55.003906 L 111 55.003906 Z M 111 28 " clip-rule="nonzero"/></clipPath><clipPath id="8886a26830"><path d="M 167 13 L 200.933594 13 L 200.933594 24 L 167 24 Z M 167 13 " clip-rule="nonzero"/></clipPath><clipPath id="6eb7cc3bfc"><path d="M 35.183594 13 L 69 13 L 69 24 L 35.183594 24 Z M 35.183594 13 " clip-rule="nonzero"/></clipPath><clipPath id="8816d74bf6"><path d="M 159 5.503906 L 168 5.503906 L 168 13 L 159 13 Z M 159 5.503906 " clip-rule="nonzero"/></clipPath><clipPath id="335c49a8de"><path d="M 68 5.503906 L 77 5.503906 L 77 13 L 68 13 Z M 68 5.503906 " clip-rule="nonzero"/></clipPath></defs><g fill="#342869" fill-opacity="1"><g transform="translate(56.616211, 108.43476)"><g><path d="M 43.6875 -21.9375 C 43.800781 -21.476562 43.882812 -21.0625 43.9375 -20.6875 C 44 -20.320312 44.054688 -20.03125 44.109375 -19.8125 C 44.109375 -19.632812 44.125 -19.445312 44.15625 -19.25 C 44.1875 -19.050781 44.203125 -18.867188 44.203125 -18.703125 L 44.203125 -11.640625 C 44.203125 -11.523438 44.15625 -11.171875 44.0625 -10.578125 C 43.976562 -9.984375 43.769531 -9.265625 43.4375 -8.421875 C 43.09375 -7.566406 42.507812 -6.644531 41.6875 -5.65625 C 40.863281 -4.664062 39.71875 -3.742188 38.25 -2.890625 C 36.78125 -2.035156 34.894531 -1.328125 32.59375 -0.765625 C 30.300781 -0.203125 27.484375 0.078125 24.140625 0.078125 C 23.859375 0.078125 23.472656 0.078125 22.984375 0.078125 C 22.503906 0.078125 21.613281 0.078125 20.3125 0.078125 C 19.007812 0.078125 17.082031 0.0625 14.53125 0.03125 C 11.976562 0.0078125 8.46875 0 4 0 L 4 -50.0625 C 3.9375 -50.6875 3.75 -51.15625 3.4375 -51.46875 C 3.125 -51.78125 2.914062 -51.960938 2.8125 -52.015625 C 2.519531 -52.191406 2.375 -52.421875 2.375 -52.703125 C 2.375 -53.265625 2.628906 -53.546875 3.140625 -53.546875 L 24.65625 -53.546875 C 29.125 -53.492188 32.632812 -52.941406 35.1875 -51.890625 C 37.738281 -50.835938 39.679688 -49.660156 41.015625 -48.359375 C 42.347656 -47.054688 43.179688 -45.78125 43.515625 -44.53125 C 43.859375 -43.289062 44.054688 -42.441406 44.109375 -41.984375 C 44.109375 -41.816406 44.125 -41.632812 44.15625 -41.4375 C 44.1875 -41.238281 44.203125 -41.054688 44.203125 -40.890625 L 44.203125 -38.5 C 44.140625 -37.3125 43.851562 -36.148438 43.34375 -35.015625 C 42.894531 -34.054688 42.171875 -33.023438 41.171875 -31.921875 C 40.179688 -30.816406 38.753906 -29.835938 36.890625 -28.984375 C 39.097656 -27.960938 40.695312 -26.800781 41.6875 -25.5 C 42.6875 -24.195312 43.351562 -23.007812 43.6875 -21.9375 Z M 29.0625 -45.390625 C 29.007812 -46.015625 28.8125 -46.582031 28.46875 -47.09375 C 28.1875 -47.539062 27.691406 -47.9375 26.984375 -48.28125 C 26.273438 -48.625 25.300781 -48.796875 24.0625 -48.796875 L 19.046875 -48.796875 L 19.125 -31.453125 L 24.0625 -31.453125 C 25.300781 -31.453125 26.273438 -31.617188 26.984375 -31.953125 C 27.691406 -32.296875 28.1875 -32.695312 28.46875 -33.15625 C 28.8125 -33.664062 29.007812 -34.257812 29.0625 -34.9375 Z M 29.0625 -8.421875 L 29.0625 -23.203125 C 29.007812 -23.828125 28.8125 -24.394531 28.46875 -24.90625 C 28.1875 -25.351562 27.691406 -25.75 26.984375 -26.09375 C 26.273438 -26.4375 25.300781 -26.609375 24.0625 -26.609375 L 19.046875 -26.609375 L 19.046875 -12.578125 L 19.125 -4.671875 L 24.0625 -4.671875 C 25.300781 -4.671875 26.273438 -4.835938 26.984375 -5.171875 C 27.691406 -5.515625 28.1875 -5.914062 28.46875 -6.375 C 28.8125 -6.882812 29.007812 -7.453125 29.0625 -8.078125 Z M 29.0625 -8.421875 "/></g></g></g><g fill="#342869" fill-opacity="1"><g transform="translate(103.36086, 108.43476)"><g><path d="M 22.6875 -1.53125 C 22.976562 -1.414062 23.125 -1.1875 23.125 -0.84375 C 23.125 -0.28125 22.867188 0 22.359375 0 L 5.6875 0 C 5.125 0 4.84375 -0.28125 4.84375 -0.84375 C 4.84375 -1.1875 4.984375 -1.414062 5.265625 -1.53125 L 5.359375 -1.609375 C 5.410156 -1.671875 5.601562 -1.84375 5.9375 -2.125 C 6.28125 -2.40625 6.453125 -2.914062 6.453125 -3.65625 C 6.453125 -3.65625 6.453125 -3.738281 6.453125 -3.90625 C 6.453125 -4.082031 6.453125 -4.59375 6.453125 -5.4375 C 6.453125 -6.289062 6.453125 -7.648438 6.453125 -9.515625 C 6.453125 -11.390625 6.453125 -14.039062 6.453125 -17.46875 C 6.453125 -20.894531 6.453125 -25.242188 6.453125 -30.515625 C 6.453125 -35.785156 6.453125 -42.273438 6.453125 -49.984375 C 6.453125 -50.710938 6.28125 -51.234375 5.9375 -51.546875 C 5.601562 -51.859375 5.410156 -52.046875 5.359375 -52.109375 L 5.265625 -52.109375 C 4.984375 -52.273438 4.84375 -52.5 4.84375 -52.78125 C 4.84375 -53.351562 5.125 -53.640625 5.6875 -53.640625 L 22.359375 -53.640625 C 22.867188 -53.640625 23.125 -53.351562 23.125 -52.78125 C 23.125 -52.5 22.976562 -52.273438 22.6875 -52.109375 C 22.582031 -52.046875 22.359375 -51.859375 22.015625 -51.546875 C 21.671875 -51.234375 21.5 -50.710938 21.5 -49.984375 L 21.5 -3.65625 C 21.5 -2.914062 21.671875 -2.40625 22.015625 -2.125 C 22.359375 -1.84375 22.582031 -1.671875 22.6875 -1.609375 Z M 22.6875 -1.53125 "/></g></g></g><g fill="#342869" fill-opacity="1"><g transform="translate(131.407652, 108.43476)"><g><path d="M 43.515625 -13.34375 C 43.460938 -10.789062 43.519531 -8.675781 43.6875 -7 C 43.851562 -5.332031 44.050781 -3.960938 44.28125 -2.890625 C 44.507812 -1.640625 44.796875 -0.648438 45.140625 0.078125 L 35.109375 0 C 33.296875 -0.226562 31.78125 -0.960938 30.5625 -2.203125 C 29.34375 -3.453125 28.644531 -4.984375 28.46875 -6.796875 C 28.414062 -6.742188 28.390625 -6.882812 28.390625 -7.21875 C 28.390625 -7.5625 28.390625 -7.960938 28.390625 -8.421875 L 28.3125 -23.203125 C 28.25 -23.828125 28.046875 -24.394531 27.703125 -24.90625 C 27.421875 -25.351562 26.925781 -25.75 26.21875 -26.09375 C 25.507812 -26.4375 24.535156 -26.609375 23.296875 -26.609375 L 18.28125 -26.609375 L 18.28125 0 L 3.234375 0 L 3.234375 -50.0625 C 3.171875 -50.6875 2.984375 -51.15625 2.671875 -51.46875 C 2.359375 -51.78125 2.148438 -51.960938 2.046875 -52.015625 C 1.753906 -52.191406 1.609375 -52.421875 1.609375 -52.703125 C 1.609375 -53.265625 1.894531 -53.546875 2.46875 -53.546875 L 18.28125 -53.546875 L 18.28125 -39.359375 L 18.359375 -31.453125 L 23.375 -31.453125 C 24.625 -31.453125 25.570312 -31.617188 26.21875 -31.953125 C 26.875 -32.296875 27.367188 -32.695312 27.703125 -33.15625 C 28.046875 -33.664062 28.273438 -34.257812 28.390625 -34.9375 L 28.390625 -53.546875 L 43.4375 -53.546875 L 43.4375 -38.5 C 43.375 -37.3125 43.085938 -36.148438 42.578125 -35.015625 C 42.128906 -34.054688 41.421875 -33.023438 40.453125 -31.921875 C 39.492188 -30.816406 38.078125 -29.835938 36.203125 -28.984375 C 38.359375 -27.960938 39.929688 -26.800781 40.921875 -25.5 C 41.921875 -24.195312 42.585938 -23.007812 42.921875 -21.9375 C 43.097656 -21.476562 43.210938 -21.0625 43.265625 -20.6875 C 43.316406 -20.320312 43.34375 -20.03125 43.34375 -19.8125 C 43.40625 -19.632812 43.4375 -19.445312 43.4375 -19.25 C 43.4375 -19.050781 43.4375 -18.867188 43.4375 -18.703125 L 43.4375 -13.34375 Z M 43.515625 -13.34375 "/></g></g></g><g fill="#342869" fill-opacity="1"><g transform="translate(178.152301, 108.43476)"><g><path d="M 36.71875 -20.140625 C 38.8125 -20.140625 40.59375 -19.414062 42.0625 -17.96875 C 43.539062 -16.53125 44.28125 -14.765625 44.28125 -12.671875 C 44.28125 -12.441406 44.265625 -12.238281 44.234375 -12.0625 C 44.210938 -11.894531 44.203125 -11.695312 44.203125 -11.46875 C 44.140625 -11.070312 43.96875 -10.335938 43.6875 -9.265625 C 43.40625 -8.191406 42.753906 -7.054688 41.734375 -5.859375 C 40.710938 -4.671875 39.207031 -3.535156 37.21875 -2.453125 C 35.238281 -1.378906 32.550781 -0.644531 29.15625 -0.25 C 27.625 -0.0820312 25.925781 0 24.0625 0 L 13.765625 0 C 10.878906 0 7.625 -0.0234375 4 -0.078125 L 4 -50.15625 C 3.9375 -50.769531 3.75 -51.234375 3.4375 -51.546875 C 3.125 -51.859375 2.914062 -52.046875 2.8125 -52.109375 C 2.519531 -52.273438 2.375 -52.5 2.375 -52.78125 C 2.375 -53.351562 2.660156 -53.640625 3.234375 -53.640625 L 4 -53.640625 L 24.21875 -53.71875 C 27.445312 -53.71875 30.179688 -53.445312 32.421875 -52.90625 C 34.660156 -52.375 36.53125 -51.707031 38.03125 -50.90625 C 39.539062 -50.113281 40.703125 -49.222656 41.515625 -48.234375 C 42.335938 -47.242188 42.945312 -46.320312 43.34375 -45.46875 C 43.800781 -44.5625 44.070312 -43.78125 44.15625 -43.125 C 44.238281 -42.476562 44.28125 -42.070312 44.28125 -41.90625 L 44.28125 -41.0625 C 44.28125 -38.957031 43.539062 -37.164062 42.0625 -35.6875 C 40.59375 -34.21875 38.8125 -33.484375 36.71875 -33.484375 C 34.675781 -33.484375 32.929688 -34.207031 31.484375 -35.65625 C 30.046875 -37.101562 29.296875 -38.816406 29.234375 -40.796875 L 29.15625 -45.46875 C 29.09375 -46.09375 28.894531 -46.660156 28.5625 -47.171875 C 28.28125 -47.628906 27.785156 -48.039062 27.078125 -48.40625 C 26.367188 -48.769531 25.390625 -48.953125 24.140625 -48.953125 L 19.203125 -48.953125 L 19.046875 -27.703125 L 22.015625 -27.703125 C 22.460938 -27.703125 22.8125 -27.828125 23.0625 -28.078125 C 23.320312 -28.335938 23.566406 -28.664062 23.796875 -29.0625 C 23.910156 -29.519531 24.050781 -29.832031 24.21875 -30 C 24.613281 -30.394531 25.039062 -30.59375 25.5 -30.59375 L 26.515625 -30.59375 C 26.972656 -30.59375 27.398438 -30.394531 27.796875 -30 C 28.140625 -29.71875 28.3125 -29.320312 28.3125 -28.8125 L 28.3125 -20.484375 C 28.3125 -20.140625 28.164062 -19.769531 27.875 -19.375 C 27.476562 -18.976562 27.023438 -18.78125 26.515625 -18.78125 L 25.5 -18.78125 C 24.9375 -18.78125 24.457031 -19.066406 24.0625 -19.640625 C 23.945312 -19.753906 23.890625 -19.863281 23.890625 -19.96875 C 23.660156 -20.425781 23.398438 -20.78125 23.109375 -21.03125 C 22.828125 -21.289062 22.460938 -21.421875 22.015625 -21.421875 L 19.046875 -21.421875 L 19.125 -4.765625 L 24.140625 -4.765625 C 25.390625 -4.765625 26.367188 -4.929688 27.078125 -5.265625 C 27.785156 -5.609375 28.28125 -6.003906 28.5625 -6.453125 C 28.894531 -6.960938 29.09375 -7.53125 29.15625 -8.15625 L 29.15625 -10.703125 L 29.234375 -12.671875 C 29.234375 -14.765625 29.957031 -16.53125 31.40625 -17.96875 C 32.851562 -19.414062 34.625 -20.140625 36.71875 -20.140625 Z M 36.71875 -20.140625 "/></g></g></g><g fill="#342869" fill-opacity="1"><g transform="translate(224.89695, 108.43476)"><g><path d="M 43.4375 -13.34375 C 43.375 -10.789062 43.441406 -8.675781 43.640625 -7 C 43.835938 -5.332031 44.050781 -3.960938 44.28125 -2.890625 C 44.507812 -1.640625 44.796875 -0.648438 45.140625 0.078125 L 35.109375 0 C 33.296875 -0.226562 31.78125 -0.960938 30.5625 -2.203125 C 29.34375 -3.453125 28.644531 -4.984375 28.46875 -6.796875 C 28.46875 -6.796875 28.453125 -6.9375 28.421875 -7.21875 C 28.398438 -7.507812 28.390625 -8.132812 28.390625 -9.09375 C 28.390625 -10.0625 28.390625 -11.453125 28.390625 -13.265625 C 28.390625 -15.078125 28.390625 -17.484375 28.390625 -20.484375 L 28.3125 -23.203125 C 28.25 -23.828125 28.046875 -24.394531 27.703125 -24.90625 C 27.421875 -25.351562 26.925781 -25.75 26.21875 -26.09375 C 25.507812 -26.4375 24.535156 -26.609375 23.296875 -26.609375 L 18.28125 -26.609375 L 18.28125 0 L 3.234375 0 L 3.234375 -50.0625 C 3.171875 -50.6875 2.984375 -51.15625 2.671875 -51.46875 C 2.359375 -51.78125 2.148438 -51.960938 2.046875 -52.015625 C 1.753906 -52.191406 1.609375 -52.421875 1.609375 -52.703125 C 1.609375 -53.265625 1.894531 -53.546875 2.46875 -53.546875 L 23.890625 -53.546875 C 28.359375 -53.492188 31.878906 -52.941406 34.453125 -51.890625 C 37.035156 -50.835938 38.976562 -49.660156 40.28125 -48.359375 C 41.59375 -47.054688 42.429688 -45.78125 42.796875 -44.53125 C 43.160156 -43.289062 43.34375 -42.441406 43.34375 -41.984375 C 43.40625 -41.816406 43.4375 -41.632812 43.4375 -41.4375 C 43.4375 -41.238281 43.4375 -41.054688 43.4375 -40.890625 L 43.4375 -38.5 C 43.375 -37.3125 43.085938 -36.148438 42.578125 -35.015625 C 42.128906 -34.054688 41.421875 -33.023438 40.453125 -31.921875 C 39.492188 -30.816406 38.078125 -29.835938 36.203125 -28.984375 C 38.359375 -27.960938 39.929688 -26.800781 40.921875 -25.5 C 41.921875 -24.195312 42.585938 -23.007812 42.921875 -21.9375 C 43.097656 -21.476562 43.210938 -21.0625 43.265625 -20.6875 C 43.316406 -20.320312 43.34375 -20.03125 43.34375 -19.8125 C 43.40625 -19.632812 43.4375 -19.445312 43.4375 -19.25 C 43.4375 -19.050781 43.4375 -18.867188 43.4375 -18.703125 Z M 28.3125 -45.390625 C 28.25 -46.015625 28.046875 -46.582031 27.703125 -47.09375 C 27.421875 -47.539062 26.925781 -47.9375 26.21875 -48.28125 C 25.507812 -48.625 24.535156 -48.796875 23.296875 -48.796875 L 18.28125 -48.796875 L 18.359375 -31.453125 L 23.375 -31.453125 C 24.625 -31.453125 25.570312 -31.617188 26.21875 -31.953125 C 26.875 -32.296875 27.367188 -32.695312 27.703125 -33.15625 C 28.046875 -33.664062 28.273438 -34.257812 28.390625 -34.9375 Z M 28.3125 -45.390625 "/></g></g></g><g fill="#342869" fill-opacity="1"><g transform="translate(271.641599, 108.43476)"><g><path d="M 22.78125 -32.5625 C 27.425781 -32.5625 31.078125 -32.050781 33.734375 -31.03125 C 36.398438 -30.007812 38.398438 -28.832031 39.734375 -27.5 C 41.066406 -26.164062 41.914062 -24.859375 42.28125 -23.578125 C 42.65625 -22.304688 42.867188 -21.445312 42.921875 -21 C 42.921875 -20.882812 42.921875 -20.738281 42.921875 -20.5625 C 42.921875 -20.394531 42.9375 -20.015625 42.96875 -19.421875 C 43 -18.828125 43.015625 -17.921875 43.015625 -16.703125 C 43.015625 -15.484375 43.015625 -13.828125 43.015625 -11.734375 C 42.953125 -11.273438 42.734375 -10.40625 42.359375 -9.125 C 41.992188 -7.851562 41.144531 -6.566406 39.8125 -5.265625 C 38.488281 -3.960938 36.492188 -2.800781 33.828125 -1.78125 C 31.160156 -0.757812 27.535156 -0.25 22.953125 -0.25 C 21.078125 -0.25 18.960938 -0.421875 16.609375 -0.765625 C 14.265625 -1.109375 12.070312 -1.742188 10.03125 -2.671875 C 7.988281 -3.609375 6.273438 -4.898438 4.890625 -6.546875 C 3.503906 -8.191406 2.8125 -10.316406 2.8125 -12.921875 C 2.8125 -14.898438 3.519531 -16.640625 4.9375 -18.140625 C 6.351562 -19.648438 8.132812 -20.40625 10.28125 -20.40625 C 12.320312 -20.40625 14.066406 -19.695312 15.515625 -18.28125 C 16.960938 -16.863281 17.738281 -15.078125 17.84375 -12.921875 L 17.9375 -8.421875 C 17.988281 -7.796875 18.1875 -7.226562 18.53125 -6.71875 C 18.8125 -6.257812 19.289062 -5.859375 19.96875 -5.515625 C 20.65625 -5.179688 21.617188 -5.015625 22.859375 -5.015625 C 24.109375 -5.015625 25.085938 -5.179688 25.796875 -5.515625 C 26.503906 -5.859375 27 -6.257812 27.28125 -6.71875 C 27.625 -7.226562 27.820312 -7.796875 27.875 -8.421875 L 27.875 -24.3125 C 27.820312 -24.9375 27.625 -25.503906 27.28125 -26.015625 C 27 -26.460938 26.503906 -26.867188 25.796875 -27.234375 C 25.085938 -27.609375 24.109375 -27.796875 22.859375 -27.796875 C 22.523438 -27.796875 22.1875 -27.765625 21.84375 -27.703125 C 21.5 -27.648438 21.1875 -27.566406 20.90625 -27.453125 C 18.46875 -26.828125 16.144531 -26.546875 13.9375 -26.609375 C 12.007812 -26.660156 10.066406 -27.066406 8.109375 -27.828125 C 6.160156 -28.597656 4.59375 -30.085938 3.40625 -32.296875 C 3.007812 -33.085938 2.8125 -33.96875 2.8125 -34.9375 L 2.8125 -40.546875 L 2.96875 -42.5 C 3.144531 -43.238281 3.457031 -44.117188 3.90625 -45.140625 C 4.363281 -46.160156 5.144531 -47.175781 6.25 -48.1875 C 7.351562 -49.207031 8.835938 -50.144531 10.703125 -51 C 12.578125 -51.851562 14.988281 -52.445312 17.9375 -52.78125 C 18.726562 -52.894531 19.5625 -52.976562 20.4375 -53.03125 C 21.320312 -53.09375 22.242188 -53.125 23.203125 -53.125 C 28.078125 -53.125 31.890625 -52.582031 34.640625 -51.5 C 37.390625 -50.425781 39.441406 -49.164062 40.796875 -47.71875 C 42.160156 -46.28125 43 -44.851562 43.3125 -43.4375 C 43.625 -42.019531 43.78125 -40.972656 43.78125 -40.296875 C 43.78125 -39.210938 43.59375 -38.203125 43.21875 -37.265625 C 42.851562 -36.335938 42.328125 -35.519531 41.640625 -34.8125 C 40.960938 -34.101562 40.15625 -33.535156 39.21875 -33.109375 C 38.289062 -32.679688 37.285156 -32.46875 36.203125 -32.46875 C 35.128906 -32.46875 34.125 -32.664062 33.1875 -33.0625 C 32.257812 -33.457031 31.441406 -34.007812 30.734375 -34.71875 C 30.023438 -35.425781 29.46875 -36.25 29.0625 -37.1875 C 28.664062 -38.125 28.46875 -39.128906 28.46875 -40.203125 L 28.390625 -44.796875 C 28.273438 -45.421875 28.046875 -45.988281 27.703125 -46.5 C 27.367188 -46.945312 26.875 -47.351562 26.21875 -47.71875 C 25.570312 -48.09375 24.597656 -48.28125 23.296875 -48.28125 C 21.984375 -48.28125 20.957031 -48.066406 20.21875 -47.640625 C 19.488281 -47.210938 18.953125 -46.773438 18.609375 -46.328125 C 18.160156 -45.703125 17.90625 -45.050781 17.84375 -44.375 L 17.84375 -34.25 C 17.957031 -33.519531 18.195312 -33.039062 18.5625 -32.8125 C 18.9375 -32.582031 19.265625 -32.441406 19.546875 -32.390625 C 19.722656 -32.441406 19.953125 -32.46875 20.234375 -32.46875 C 20.679688 -32.46875 21.101562 -32.484375 21.5 -32.515625 C 21.894531 -32.546875 22.320312 -32.5625 22.78125 -32.5625 Z M 22.78125 -32.5625 "/></g></g></g><g clip-path="url(#b7474482d7)"><path fill="#342869" d="M 122.921875 55.046875 L 111.578125 55.046875 L 111.578125 28.019531 L 122.921875 28.019531 L 122.921875 55.046875 " fill-opacity="1" fill-rule="nonzero"/></g><path fill="#342869" d="M 174.957031 20.761719 C 174.957031 21.429688 174.410156 21.976562 173.742188 21.976562 C 173.742188 21.976562 155.507812 20.109375 151.921875 21.976562 C 148.328125 23.855469 138.121094 31.59375 133.480469 31.59375 C 128.835938 31.59375 106.917969 31.738281 100.730469 31.59375 C 94.542969 31.445312 86.78125 23.390625 82.550781 21.976562 C 78.324219 20.566406 60.789062 21.976562 60.789062 21.976562 C 60.113281 21.976562 59.574219 21.429688 59.574219 20.761719 L 59.574219 16.054688 C 59.574219 15.378906 60.113281 14.832031 60.789062 14.832031 C 60.789062 14.832031 76.496094 14.75 82.9375 14.832031 C 87.582031 14.78125 96.597656 24.035156 100.863281 24.445312 C 105.128906 24.851562 129.996094 25.066406 133.605469 24.445312 C 137.21875 23.824219 148.046875 16.042969 151.660156 14.832031 C 155.269531 13.617188 173.742188 14.832031 173.742188 14.832031 C 174.410156 14.832031 174.957031 15.378906 174.957031 16.054688 L 174.957031 20.761719 " fill-opacity="1" fill-rule="nonzero"/><path fill="#342869" d="M 124.542969 22.585938 C 124.542969 21.917969 124.003906 21.371094 123.328125 21.371094 L 122.378906 21.371094 C 120.8125 22.125 119.085938 22.53125 117.328125 22.53125 C 115.566406 22.53125 113.839844 22.125 112.277344 21.371094 L 111.195312 21.371094 C 110.527344 21.371094 109.980469 21.917969 109.980469 22.585938 L 109.980469 24.28125 C 110.316406 25.382812 110.496094 26.53125 110.496094 27.695312 C 110.496094 28.863281 110.316406 30.015625 109.980469 31.109375 L 109.980469 33.449219 C 109.980469 34.125 110.527344 34.667969 111.195312 34.667969 L 112.847656 34.667969 C 114.257812 34.082031 115.78125 33.765625 117.328125 33.765625 C 118.875 33.765625 120.398438 34.082031 121.804688 34.667969 L 123.328125 34.667969 C 124.003906 34.667969 124.542969 34.125 124.542969 33.449219 L 124.542969 31.632812 C 124.125 30.417969 123.90625 29.125 123.90625 27.824219 C 123.90625 26.519531 124.125 25.230469 124.542969 24.019531 L 124.542969 22.585938 " fill-opacity="1" fill-rule="nonzero"/><path fill="#ffffff" d="M 113.53125 23.664062 C 113.53125 24.402344 112.933594 25 112.199219 25 C 111.464844 25 110.867188 24.402344 110.867188 23.664062 C 110.867188 22.929688 111.464844 22.332031 112.199219 22.332031 C 112.933594 22.332031 113.53125 22.929688 113.53125 23.664062 " fill-opacity="1" fill-rule="nonzero"/><path fill="#342869" d="M 112.824219 23.664062 C 112.824219 24.003906 112.539062 24.285156 112.199219 24.285156 C 111.859375 24.285156 111.578125 24.003906 111.578125 23.664062 C 111.578125 23.316406 111.859375 23.039062 112.199219 23.039062 C 112.539062 23.039062 112.824219 23.316406 112.824219 23.664062 " fill-opacity="1" fill-rule="nonzero"/><path fill="#ffffff" d="M 123.632812 23.664062 C 123.632812 24.402344 123.035156 25 122.300781 25 C 121.566406 25 120.96875 24.402344 120.96875 23.664062 C 120.96875 22.929688 121.566406 22.332031 122.300781 22.332031 C 123.035156 22.332031 123.632812 22.929688 123.632812 23.664062 " fill-opacity="1" fill-rule="nonzero"/><path fill="#342869" d="M 122.921875 23.664062 C 122.921875 24.003906 122.648438 24.285156 122.300781 24.285156 C 121.953125 24.285156 121.679688 24.003906 121.679688 23.664062 C 121.679688 23.316406 121.953125 23.039062 122.300781 23.039062 C 122.648438 23.039062 122.921875 23.316406 122.921875 23.664062 " fill-opacity="1" fill-rule="nonzero"/><path fill="#ffffff" d="M 113.53125 32.144531 C 113.53125 32.882812 112.933594 33.480469 112.199219 33.480469 C 111.464844 33.480469 110.867188 32.882812 110.867188 32.144531 C 110.867188 31.410156 111.464844 30.808594 112.199219 30.808594 C 112.933594 30.808594 113.53125 31.410156 113.53125 32.144531 " fill-opacity="1" fill-rule="nonzero"/><path fill="#342869" d="M 112.824219 32.144531 C 112.824219 32.488281 112.539062 32.765625 112.199219 32.765625 C 111.859375 32.765625 111.578125 32.488281 111.578125 32.144531 C 111.578125 31.800781 111.859375 31.519531 112.199219 31.519531 C 112.539062 31.519531 112.824219 31.800781 112.824219 32.144531 " fill-opacity="1" fill-rule="nonzero"/><path fill="#ffffff" d="M 123.632812 32.144531 C 123.632812 32.882812 123.035156 33.480469 122.300781 33.480469 C 121.566406 33.480469 120.96875 32.882812 120.96875 32.144531 C 120.96875 31.410156 121.566406 30.808594 122.300781 30.808594 C 123.035156 30.808594 123.632812 31.410156 123.632812 32.144531 " fill-opacity="1" fill-rule="nonzero"/><path fill="#342869" d="M 122.921875 32.144531 C 122.921875 32.488281 122.648438 32.765625 122.300781 32.765625 C 121.953125 32.765625 121.679688 32.488281 121.679688 32.144531 C 121.679688 31.800781 121.953125 31.519531 122.300781 31.519531 C 122.648438 31.519531 122.921875 31.800781 122.921875 32.144531 " fill-opacity="1" fill-rule="nonzero"/><g clip-path="url(#8886a26830)"><path fill="#342869" d="M 200.230469 21.921875 C 200.230469 22.597656 199.683594 23.148438 199.007812 23.148438 L 169.1875 23.148438 C 168.515625 23.148438 167.96875 22.597656 167.96875 21.921875 L 167.96875 14.886719 C 167.96875 14.210938 168.515625 13.660156 169.1875 13.660156 L 199.007812 13.660156 C 199.683594 13.660156 200.230469 14.210938 200.230469 14.886719 L 200.230469 21.921875 " fill-opacity="1" fill-rule="nonzero"/></g><path fill="#342869" d="M 168.941406 23.175781 C 168.941406 23.714844 168.503906 24.144531 167.96875 24.144531 C 167.433594 24.144531 167 23.714844 167 23.175781 L 167 13.632812 C 167 13.101562 167.433594 12.664062 167.96875 12.664062 C 168.503906 12.664062 168.941406 13.101562 168.941406 13.632812 L 168.941406 23.175781 " fill-opacity="1" fill-rule="nonzero"/><g clip-path="url(#6eb7cc3bfc)"><path fill="#342869" d="M 35.828125 21.921875 C 35.828125 22.597656 36.375 23.148438 37.046875 23.148438 L 66.867188 23.148438 C 67.542969 23.148438 68.089844 22.597656 68.089844 21.921875 L 68.089844 14.886719 C 68.089844 14.210938 67.542969 13.660156 66.867188 13.660156 L 37.046875 13.660156 C 36.375 13.660156 35.828125 14.210938 35.828125 14.886719 L 35.828125 21.921875 " fill-opacity="1" fill-rule="nonzero"/></g><path fill="#342869" d="M 67.121094 23.175781 C 67.121094 23.714844 67.554688 24.144531 68.089844 24.144531 C 68.625 24.144531 69.054688 23.714844 69.054688 23.175781 L 69.054688 13.632812 C 69.054688 13.101562 68.625 12.664062 68.089844 12.664062 C 67.554688 12.664062 67.121094 13.101562 67.121094 13.632812 L 67.121094 23.175781 " fill-opacity="1" fill-rule="nonzero"/><path fill="#342869" d="M 163.085938 13.722656 C 163.085938 16.183594 161.097656 18.179688 158.644531 18.179688 C 156.1875 18.179688 154.195312 16.183594 154.195312 13.722656 C 154.195312 11.261719 156.1875 9.265625 158.644531 9.265625 C 161.097656 9.265625 163.085938 11.261719 163.085938 13.722656 " fill-opacity="1" fill-rule="nonzero"/><g clip-path="url(#8816d74bf6)"><path fill="#342869" d="M 159.355469 12.664062 L 159.992188 7.972656 L 166.179688 5.519531 C 166.179688 5.519531 169.109375 5.910156 167 7.71875 C 167 7.71875 163.542969 9.113281 161.671875 9.265625 L 161.152344 12.664062 L 159.355469 12.664062 " fill-opacity="1" fill-rule="nonzero"/></g><path fill="#342869" d="M 72.976562 13.722656 C 72.976562 16.183594 74.964844 18.179688 77.425781 18.179688 C 79.882812 18.179688 81.867188 16.183594 81.867188 13.722656 C 81.867188 11.261719 79.882812 9.265625 77.425781 9.265625 C 74.964844 9.265625 72.976562 11.261719 72.976562 13.722656 " fill-opacity="1" fill-rule="nonzero"/><g clip-path="url(#335c49a8de)"><path fill="#342869" d="M 76.714844 12.664062 L 76.070312 7.972656 L 69.882812 5.519531 C 69.882812 5.519531 66.953125 5.910156 69.0625 7.71875 C 69.0625 7.71875 72.519531 9.113281 74.390625 9.265625 L 74.910156 12.664062 L 76.714844 12.664062 " fill-opacity="1" fill-rule="nonzero"/></g><g fill="#342869" fill-opacity="1"><g transform="translate(69.281255, 139.48473)"><g><path d="M 7.839844 -6.457031 C 8.964844 -6.96875 9.710938 -7.988281 9.710938 -9.347656 C 9.710938 -11.34375 8.136719 -12.746094 6.183594 -12.746094 L 1.550781 -12.746094 L 1.550781 0 L 6.628906 0 C 8.5625 0 10.113281 -1.382812 10.113281 -3.355469 C 10.113281 -4.90625 9.179688 -6.011719 7.839844 -6.457031 Z M 8.351562 -9.242188 C 8.351562 -7.988281 7.308594 -7.03125 6.035156 -7.03125 L 2.890625 -7.03125 L 2.890625 -11.386719 L 6.035156 -11.386719 C 7.308594 -11.386719 8.351562 -10.496094 8.351562 -9.242188 Z M 6.457031 -1.359375 L 2.890625 -1.359375 L 2.890625 -5.714844 L 6.457031 -5.714844 C 7.710938 -5.714844 8.753906 -4.757812 8.753906 -3.503906 C 8.753906 -2.253906 7.710938 -1.359375 6.457031 -1.359375 Z M 6.457031 -1.359375 "/></g></g></g><g fill="#342869" fill-opacity="1"><g transform="translate(90.590081, 139.48473)"><g><path d="M 1.65625 0 L 3.015625 0 L 3.015625 -12.746094 L 1.65625 -12.746094 Z M 1.65625 0 "/></g></g></g><g fill="#342869" fill-opacity="1"><g transform="translate(105.441893, 139.48473)"><g><path d="M 7.585938 0.171875 C 10.027344 0.171875 12.152344 -1.167969 13.277344 -3.144531 L 12.109375 -3.804688 C 11.238281 -2.230469 9.539062 -1.191406 7.585938 -1.191406 C 4.714844 -1.191406 2.402344 -3.484375 2.402344 -6.375 C 2.402344 -9.261719 4.714844 -11.558594 7.585938 -11.558594 C 9.539062 -11.558594 11.238281 -10.515625 12.109375 -8.945312 L 13.277344 -9.601562 C 12.152344 -11.578125 10.027344 -12.917969 7.585938 -12.917969 C 3.972656 -12.917969 1.042969 -9.984375 1.042969 -6.375 C 1.042969 -2.761719 3.972656 0.171875 7.585938 0.171875 Z M 7.585938 0.171875 "/></g></g></g><g fill="#342869" fill-opacity="1"><g transform="translate(129.618136, 139.48473)"><g><path d="M 10.28125 -12.746094 L 8.605469 -12.746094 L 5.164062 -7.457031 L 1.722656 -12.746094 L 0.0195312 -12.746094 L 4.484375 -6.035156 L 4.484375 0 L 5.84375 0 L 5.84375 -6.054688 Z M 10.28125 -12.746094 "/></g></g></g><g fill="#342869" fill-opacity="1"><g transform="translate(150.119825, 139.48473)"><g><path d="M 7.585938 0.171875 C 10.027344 0.171875 12.152344 -1.167969 13.277344 -3.144531 L 12.109375 -3.804688 C 11.238281 -2.230469 9.539062 -1.191406 7.585938 -1.191406 C 4.714844 -1.191406 2.402344 -3.484375 2.402344 -6.375 C 2.402344 -9.261719 4.714844 -11.558594 7.585938 -11.558594 C 9.539062 -11.558594 11.238281 -10.515625 12.109375 -8.945312 L 13.277344 -9.601562 C 12.152344 -11.578125 10.027344 -12.917969 7.585938 -12.917969 C 3.972656 -12.917969 1.042969 -9.984375 1.042969 -6.375 C 1.042969 -2.761719 3.972656 0.171875 7.585938 0.171875 Z M 7.585938 0.171875 "/></g></g></g><g fill="#342869" fill-opacity="1"><g transform="translate(174.296068, 139.48473)"><g><path d="M 2.910156 -1.359375 L 2.910156 -12.746094 L 1.550781 -12.746094 L 1.550781 0 L 7.648438 0 L 7.648438 -1.359375 Z M 2.910156 -1.359375 "/></g></g></g><g fill="#342869" fill-opacity="1"><g transform="translate(192.3339, 139.48473)"><g><path d="M 8.625 -11.429688 L 8.625 -12.746094 L 1.65625 -12.746094 L 1.65625 0 L 8.625 0 L 8.625 -1.316406 L 3.015625 -1.316406 L 3.015625 -5.714844 L 7.902344 -5.714844 L 7.902344 -7.03125 L 3.015625 -7.03125 L 3.015625 -11.429688 Z M 8.625 -11.429688 "/></g></g></g><g fill="#342869" fill-opacity="1"><g transform="translate(212.432028, 139.48473)"><g/></g></g><g fill="#342869" fill-opacity="1"><g transform="translate(227.751117, 139.48473)"><g><path d="M 4.757812 0.171875 C 6.925781 0.171875 8.691406 -1.125 8.691406 -3.355469 C 8.691406 -7.691406 2.484375 -6.628906 2.484375 -9.667969 C 2.484375 -10.941406 3.527344 -11.558594 4.714844 -11.558594 C 5.695312 -11.558594 6.5 -11.152344 7.011719 -10.433594 L 8.074219 -11.324219 C 7.371094 -12.214844 6.140625 -12.917969 4.675781 -12.917969 C 2.71875 -12.917969 1.125 -11.644531 1.125 -9.5625 C 1.125 -5.460938 7.328125 -6.480469 7.328125 -3.3125 C 7.328125 -1.953125 6.203125 -1.191406 4.78125 -1.191406 C 3.335938 -1.191406 2.292969 -1.976562 1.847656 -3.144531 L 0.617188 -2.421875 C 1.273438 -0.851562 2.867188 0.171875 4.757812 0.171875 Z M 4.757812 0.171875 "/></g></g></g><g fill="#342869" fill-opacity="1"><g transform="translate(247.254524, 139.48473)"><g><path d="M 9.941406 -12.746094 L 9.941406 -7.054688 L 2.910156 -7.054688 L 2.910156 -12.746094 L 1.550781 -12.746094 L 1.550781 0 L 2.910156 0 L 2.910156 -5.695312 L 9.941406 -5.695312 L 9.941406 0 L 11.304688 0 L 11.304688 -12.746094 Z M 9.941406 -12.746094 "/></g></g></g><g fill="#342869" fill-opacity="1"><g transform="translate(270.30504, 139.48473)"><g><path d="M 7.585938 0.171875 C 11.21875 0.171875 14.128906 -2.761719 14.128906 -6.375 C 14.128906 -9.984375 11.21875 -12.917969 7.585938 -12.917969 C 3.972656 -12.917969 1.042969 -9.984375 1.042969 -6.375 C 1.042969 -2.761719 3.972656 0.171875 7.585938 0.171875 Z M 7.585938 -1.191406 C 4.714844 -1.191406 2.402344 -3.484375 2.402344 -6.375 C 2.402344 -9.261719 4.714844 -11.558594 7.585938 -11.558594 C 10.472656 -11.558594 12.769531 -9.261719 12.769531 -6.375 C 12.769531 -3.484375 10.472656 -1.191406 7.585938 -1.191406 Z M 7.585938 -1.191406 "/></g></g></g><g fill="#342869" fill-opacity="1"><g transform="translate(295.691983, 139.48473)"><g><path d="M 6.117188 -12.746094 L 1.550781 -12.746094 L 1.550781 0 L 2.910156 0 L 2.910156 -5.671875 L 6.117188 -5.671875 C 8.09375 -5.671875 9.667969 -7.222656 9.667969 -9.199219 C 9.667969 -11.152344 8.09375 -12.746094 6.117188 -12.746094 Z M 5.992188 -6.96875 L 2.910156 -6.96875 L 2.910156 -11.429688 L 5.992188 -11.429688 C 7.265625 -11.429688 8.308594 -10.539062 8.308594 -9.179688 C 8.308594 -7.777344 7.265625 -6.96875 5.992188 -6.96875 Z M 5.992188 -6.96875 "/></g></g></g></svg>