<svg xmlns="http://www.w3.org/2000/svg" xmlns:xlink="http://www.w3.org/1999/xlink" width="500" zoomAndPan="magnify" viewBox="0 0 375 299.999988" height="400" preserveAspectRatio="xMidYMid meet" version="1.0"><defs><clipPath id="d601455021"><path d="M 87 23.363281 L 371 23.363281 L 371 87 L 87 87 Z M 87 23.363281 " clip-rule="nonzero"/></clipPath><clipPath id="ac3da4a7a4"><path d="M 4 23.363281 L 67 23.363281 L 67 87 L 4 87 Z M 4 23.363281 " clip-rule="nonzero"/></clipPath><clipPath id="b99acce9fe"><path d="M 87 214 L 371 214 L 371 276.863281 L 87 276.863281 Z M 87 214 " clip-rule="nonzero"/></clipPath><clipPath id="a840886d3d"><path d="M 4 214 L 67 214 L 67 276.863281 L 4 276.863281 Z M 4 214 " clip-rule="nonzero"/></clipPath></defs><g clip-path="url(#d601455021)"><path fill="#413382" d="M 339.472656 86.148438 L 119.101562 86.148438 C 101.8125 86.148438 87.746094 72.066406 87.746094 54.761719 C 87.738281 37.445312 101.804688 23.363281 119.101562 23.363281 L 339.472656 23.363281 C 356.761719 23.363281 370.828125 37.445312 370.828125 54.753906 C 370.828125 72.066406 356.761719 86.148438 339.472656 86.148438 Z M 119.101562 33.835938 C 107.578125 33.835938 98.207031 43.21875 98.207031 54.753906 C 98.207031 66.289062 107.578125 75.671875 119.101562 75.671875 L 339.472656 75.671875 C 350.992188 75.671875 360.367188 66.289062 360.367188 54.753906 C 360.367188 43.21875 350.992188 33.835938 339.472656 33.835938 Z M 119.101562 33.835938 " fill-opacity="1" fill-rule="nonzero"/></g><g clip-path="url(#ac3da4a7a4)"><path fill="#413382" d="M 35.511719 86.148438 C 18.222656 86.148438 4.15625 72.066406 4.15625 54.753906 C 4.15625 37.445312 18.222656 23.363281 35.511719 23.363281 C 52.800781 23.363281 66.871094 37.445312 66.871094 54.753906 C 66.875 72.066406 52.808594 86.148438 35.511719 86.148438 Z M 35.511719 33.835938 C 23.992188 33.835938 14.617188 43.21875 14.617188 54.753906 C 14.617188 66.289062 23.992188 75.671875 35.511719 75.671875 C 47.035156 75.671875 56.40625 66.289062 56.40625 54.753906 C 56.414062 43.21875 47.042969 33.835938 35.511719 33.835938 Z M 35.511719 33.835938 " fill-opacity="1" fill-rule="nonzero"/></g><path fill="#413382" d="M 339.472656 181.496094 L 119.101562 181.496094 C 101.8125 181.496094 87.746094 167.414062 87.746094 150.109375 C 87.746094 132.800781 101.8125 118.71875 119.101562 118.71875 L 339.472656 118.71875 C 356.761719 118.71875 370.828125 132.800781 370.828125 150.109375 C 370.828125 167.414062 356.761719 181.496094 339.472656 181.496094 Z M 119.101562 129.191406 C 107.578125 129.191406 98.207031 138.574219 98.207031 150.109375 C 98.207031 161.640625 107.578125 171.023438 119.101562 171.023438 L 339.472656 171.023438 C 350.992188 171.023438 360.367188 161.640625 360.367188 150.109375 C 360.367188 138.574219 350.992188 129.191406 339.472656 129.191406 Z M 119.101562 129.191406 " fill-opacity="1" fill-rule="nonzero"/><path fill="#413382" d="M 35.511719 181.496094 C 18.222656 181.496094 4.15625 167.414062 4.15625 150.109375 C 4.15625 132.800781 18.222656 118.71875 35.511719 118.71875 C 52.800781 118.71875 66.871094 132.800781 66.871094 150.109375 C 66.871094 167.414062 52.808594 181.496094 35.511719 181.496094 Z M 35.511719 129.191406 C 23.992188 129.191406 14.617188 138.574219 14.617188 150.109375 C 14.617188 161.640625 23.992188 171.023438 35.511719 171.023438 C 47.035156 171.023438 56.40625 161.640625 56.40625 150.109375 C 56.40625 138.574219 47.042969 129.191406 35.511719 129.191406 Z M 35.511719 129.191406 " fill-opacity="1" fill-rule="nonzero"/><g clip-path="url(#b99acce9fe)"><path fill="#413382" d="M 339.472656 276.851562 L 119.101562 276.851562 C 101.8125 276.851562 87.746094 262.769531 87.746094 245.460938 C 87.746094 228.15625 101.8125 214.074219 119.101562 214.074219 L 339.472656 214.074219 C 356.761719 214.074219 370.828125 228.15625 370.828125 245.460938 C 370.828125 262.769531 356.761719 276.851562 339.472656 276.851562 Z M 119.101562 224.539062 C 107.578125 224.539062 98.207031 233.921875 98.207031 245.453125 C 98.207031 256.988281 107.578125 266.371094 119.101562 266.371094 L 339.472656 266.371094 C 350.992188 266.371094 360.367188 256.988281 360.367188 245.453125 C 360.367188 233.921875 350.992188 224.539062 339.472656 224.539062 Z M 119.101562 224.539062 " fill-opacity="1" fill-rule="nonzero"/></g><g clip-path="url(#a840886d3d)"><path fill="#413382" d="M 35.511719 276.851562 C 18.222656 276.851562 4.15625 262.769531 4.15625 245.460938 C 4.15625 228.15625 18.222656 214.074219 35.511719 214.074219 C 52.800781 214.074219 66.871094 228.15625 66.871094 245.460938 C 66.871094 262.769531 52.808594 276.851562 35.511719 276.851562 Z M 35.511719 224.539062 C 23.992188 224.539062 14.617188 233.921875 14.617188 245.453125 C 14.617188 256.988281 23.992188 266.371094 35.511719 266.371094 C 47.035156 266.371094 56.40625 256.988281 56.40625 245.453125 C 56.40625 233.921875 47.042969 224.539062 35.511719 224.539062 Z M 35.511719 224.539062 " fill-opacity="1" fill-rule="nonzero"/></g></svg>