<svg xmlns="http://www.w3.org/2000/svg" xmlns:xlink="http://www.w3.org/1999/xlink" width="500" zoomAndPan="magnify" viewBox="0 0 375 299.999988" height="400" preserveAspectRatio="xMidYMid meet" version="1.0"><defs><clipPath id="0220c128c8"><path d="M 37.5 165 L 172 165 L 172 300 L 37.5 300 Z M 37.5 165 " clip-rule="nonzero"/></clipPath><clipPath id="546f852383"><path d="M 203 165 L 337.5 165 L 337.5 300 L 203 300 Z M 203 165 " clip-rule="nonzero"/></clipPath><clipPath id="9e5bda5e8f"><path d="M 37.5 0 L 172 0 L 172 135 L 37.5 135 Z M 37.5 0 " clip-rule="nonzero"/></clipPath><clipPath id="b3dfc025b7"><path d="M 203 0 L 337.5 0 L 337.5 135 L 203 135 Z M 203 0 " clip-rule="nonzero"/></clipPath></defs><g clip-path="url(#0220c128c8)"><path fill="#413382" d="M 144.90625 165.71875 L 64.269531 165.71875 C 49.539062 165.71875 37.542969 177.710938 37.542969 192.59375 L 37.542969 273.230469 C 37.542969 287.960938 49.539062 299.957031 64.269531 299.957031 L 144.90625 299.957031 C 159.636719 299.957031 171.78125 287.960938 171.78125 273.230469 L 171.78125 192.59375 C 171.78125 177.710938 159.632812 165.71875 144.90625 165.71875 Z M 144.90625 165.71875 " fill-opacity="1" fill-rule="evenodd"/></g><g clip-path="url(#546f852383)"><path fill="#413382" d="M 310.730469 165.71875 L 230.09375 165.71875 C 215.363281 165.71875 203.21875 177.710938 203.21875 192.59375 L 203.21875 273.230469 C 203.21875 287.960938 215.367188 299.957031 230.09375 299.957031 L 310.730469 299.957031 C 325.460938 299.957031 337.457031 287.960938 337.457031 273.230469 L 337.457031 192.59375 C 337.457031 177.710938 325.460938 165.71875 310.730469 165.71875 Z M 310.730469 165.71875 " fill-opacity="1" fill-rule="evenodd"/></g><g clip-path="url(#9e5bda5e8f)"><path fill="#413382" d="M 144.90625 0.0429688 L 64.269531 0.0429688 C 49.539062 0.0429688 37.542969 12.039062 37.542969 26.769531 L 37.542969 107.40625 C 37.542969 122.136719 49.539062 134.28125 64.269531 134.28125 L 144.90625 134.28125 C 159.636719 134.28125 171.78125 122.132812 171.78125 107.40625 L 171.78125 26.769531 C 171.78125 12.039062 159.632812 0.0429688 144.90625 0.0429688 Z M 144.90625 0.0429688 " fill-opacity="1" fill-rule="evenodd"/></g><g clip-path="url(#b3dfc025b7)"><path fill="#413382" d="M 310.730469 0.0429688 L 230.09375 0.0429688 C 215.363281 0.0429688 203.21875 12.039062 203.21875 26.769531 L 203.21875 107.40625 C 203.21875 122.136719 215.367188 134.28125 230.09375 134.28125 L 310.730469 134.28125 C 325.460938 134.28125 337.457031 122.132812 337.457031 107.40625 L 337.457031 26.769531 C 337.457031 12.039062 325.460938 0.0429688 310.730469 0.0429688 Z M 310.730469 0.0429688 " fill-opacity="1" fill-rule="evenodd"/></g></svg>