<svg xmlns="http://www.w3.org/2000/svg" xmlns:xlink="http://www.w3.org/1999/xlink" width="500" zoomAndPan="magnify" viewBox="0 0 375 299.999988" height="400" preserveAspectRatio="xMidYMid meet" version="1.0"><defs><clipPath id="6b9765f819"><path d="M 41.609375 4.109375 L 333 4.109375 L 333 295.859375 L 41.609375 295.859375 Z M 41.609375 4.109375 " clip-rule="nonzero"/></clipPath></defs><g clip-path="url(#6b9765f819)"><path fill="#413382" d="M 217.6875 199.023438 L 312.660156 293.925781 C 315.125 296.460938 319.191406 296.460938 321.722656 293.925781 L 330.71875 284.929688 C 333.253906 282.398438 333.253906 278.332031 330.71875 275.933594 L 235.816406 180.894531 C 250.410156 162.367188 259.140625 138.976562 259.140625 113.582031 C 259.140625 53.535156 210.425781 4.816406 150.375 4.816406 C 90.328125 4.816406 41.609375 53.535156 41.609375 113.582031 C 41.609375 173.628906 90.328125 222.347656 150.375 222.347656 C 175.769531 222.347656 199.160156 213.617188 217.6875 199.023438 Z M 150.375 209.554688 C 203.359375 209.554688 246.347656 166.566406 246.347656 113.582031 C 246.347656 60.664062 203.359375 17.613281 150.375 17.613281 C 97.390625 17.613281 54.40625 60.664062 54.40625 113.582031 C 54.40625 166.566406 97.390625 209.554688 150.375 209.554688 Z M 150.375 209.554688 " fill-opacity="1" fill-rule="evenodd"/></g></svg>